<svg width="57" height="57" viewBox="0 0 57 57" fill="none" xmlns="http://www.w3.org/2000/svg">
<rect y="0.621094" width="56.25" height="56.25" rx="11.25" fill="white"/>
<path d="M22.4373 18.0947L23.9817 17.626C24.6847 17.4122 25.4408 17.4636 26.109 17.7705C26.7772 18.0774 27.3117 18.6189 27.6127 19.2938L28.5738 21.4483C28.8327 22.0287 28.9049 22.6762 28.7801 23.3001C28.6552 23.9239 28.3398 24.4926 27.8779 24.9266L26.1986 26.5045C26.1785 26.5246 26.1616 26.5476 26.1484 26.5729C25.9726 26.9348 26.2396 27.9014 27.0759 29.3621C28.0193 31.0084 28.7477 31.659 29.0854 31.5587L31.2894 30.879C31.893 30.6933 32.5391 30.7025 33.1372 30.9054C33.7353 31.1084 34.2554 31.4948 34.6246 32.0106L35.9903 33.9166C36.4191 34.5151 36.6177 35.2501 36.5493 35.985C36.4808 36.7199 36.15 37.4048 35.6182 37.9124L34.4432 39.0328C34.0346 39.4228 33.5384 39.7075 32.997 39.8624C32.4556 40.0173 31.8851 40.0379 31.334 39.9225C28.0621 39.2362 25.1306 36.5811 22.5145 32.0153C19.8975 27.4467 19.0816 23.5559 20.1329 20.3561C20.3089 19.8204 20.6102 19.3352 21.0115 18.9416C21.4127 18.548 21.9012 18.2576 22.4373 18.0947ZM22.842 19.441C22.5203 19.5387 22.2267 19.7129 21.9859 19.9491C21.7451 20.1852 21.5643 20.4762 21.4586 20.7977C20.5525 23.555 21.2865 27.0576 23.724 31.3122C26.1596 35.5639 28.7998 37.9546 31.6196 38.5453C31.9503 38.6144 32.2926 38.6019 32.6174 38.5089C32.9422 38.4158 33.2399 38.245 33.485 38.0109L34.659 36.8915C34.9455 36.6182 35.1237 36.2494 35.1607 35.8537C35.1977 35.4579 35.0908 35.0621 34.86 34.7398L33.4943 32.8328C33.2955 32.5552 33.0155 32.3471 32.6935 32.2378C32.3715 32.1285 32.0237 32.1235 31.6987 32.2234L29.4892 32.905C28.2668 33.2716 27.1169 32.245 25.8684 30.0643C24.8106 28.2192 24.444 26.886 24.8962 25.9551C24.9842 25.7738 25.1015 25.6141 25.2478 25.476L26.9271 23.8981C27.1759 23.6644 27.3458 23.3581 27.4131 23.0222C27.4803 22.6862 27.4415 22.3375 27.302 22.0249L26.34 19.8714C26.1779 19.5078 25.8901 19.2162 25.5302 19.0509C25.1704 18.8857 24.7631 18.858 24.3845 18.9732L22.842 19.441Z" fill="#192227"/>
</svg>
