<svg width="30" height="31" viewBox="0 0 30 31" fill="none" xmlns="http://www.w3.org/2000/svg">
<rect y="0.290039" width="30" height="30" rx="15" fill="#FF191F"/>
<path d="M18.6394 21.1649C18.1492 21.1649 17.4605 20.9877 16.4292 20.4116C15.1751 19.7085 14.2051 19.0593 12.9578 17.8155C11.7552 16.6139 11.17 15.8359 10.3509 14.3458C9.42562 12.6633 9.58335 11.7814 9.75967 11.4044C9.96965 10.9539 10.2796 10.6845 10.6802 10.417C10.9077 10.268 11.1485 10.1402 11.3995 10.0353C11.4247 10.0245 11.448 10.0142 11.4689 10.005C11.5932 9.94896 11.7816 9.86433 12.0202 9.95473C12.1794 10.0145 12.3216 10.1368 12.5441 10.3565C13.0005 10.8065 13.6241 11.8087 13.8542 12.3009C14.0087 12.6327 14.1109 12.8516 14.1111 13.0972C14.1111 13.3848 13.9665 13.6065 13.7909 13.8458C13.758 13.8908 13.7254 13.9337 13.6937 13.9754C13.5026 14.2265 13.4606 14.2991 13.4883 14.4287C13.5443 14.6891 13.962 15.4643 14.6484 16.1491C15.3348 16.8339 16.0878 17.2251 16.3493 17.2809C16.4844 17.3098 16.5585 17.2661 16.8177 17.0682C16.8549 17.0398 16.8931 17.0104 16.933 16.981C17.2008 16.7819 17.4122 16.641 17.693 16.641H17.6946C17.9389 16.641 18.1482 16.747 18.4948 16.9218C18.9469 17.1498 19.9794 17.7653 20.4323 18.2221C20.6526 18.4441 20.7754 18.5857 20.8354 18.7447C20.9258 18.984 20.8407 19.1716 20.7852 19.2971C20.7759 19.318 20.7656 19.3408 20.7548 19.3662C20.6491 19.6167 20.5205 19.8569 20.3707 20.0839C20.1037 20.4832 19.8332 20.7923 19.3816 21.0025C19.1497 21.1121 18.896 21.1677 18.6394 21.1649Z" fill="white"/>
</svg>
