<svg width="25" height="24" viewBox="0 0 25 24" fill="none" xmlns="http://www.w3.org/2000/svg">
<path d="M11.6975 1.66109C11.9501 0.883737 13.0499 0.883738 13.3025 1.66109L15.3476 7.95555C15.5359 8.53496 16.0758 8.92725 16.6851 8.92725H23.3035C24.1208 8.92725 24.4607 9.97317 23.7994 10.4536L18.445 14.3438C17.9521 14.7019 17.7459 15.3366 17.9342 15.916L19.9794 22.2105C20.2319 22.9878 19.3422 23.6343 18.681 23.1538L13.3266 19.2636C12.8337 18.9055 12.1663 18.9055 11.6734 19.2636L6.31904 23.1538C5.65778 23.6343 4.76807 22.9878 5.02064 22.2105L7.06584 15.916C7.2541 15.3366 7.04786 14.7019 6.55499 14.3438L1.2006 10.4536C0.539344 9.97317 0.879186 8.92725 1.69655 8.92725H8.31493C8.92415 8.92725 9.46409 8.53496 9.65235 7.95555L11.6975 1.66109Z" fill="url(#paint0_linear_161_2421)" stroke="#192227" stroke-width="0.5625"/>
<defs>
<linearGradient id="paint0_linear_161_2421" x1="27.5" y1="11.4062" x2="-2.5" y2="11.4062" gradientUnits="userSpaceOnUse">
<stop offset="0.414484" stop-color="white"/>
<stop offset="0.439053" stop-color="#32BB37"/>
</linearGradient>
</defs>
</svg>
