<svg width="50" height="51" viewBox="0 0 50 51" fill="none" xmlns="http://www.w3.org/2000/svg">
<circle cx="25.747" cy="26.0356" r="21.6264" fill="#FF191F"/>
<path d="M26.2619 22.6917C25.2376 22.6917 24.2553 23.0985 23.5311 23.8228C22.8069 24.547 22.4 25.5293 22.4 26.5535C22.4 27.5778 22.8069 28.56 23.5311 29.2843C24.2553 30.0085 25.2376 30.4154 26.2619 30.4154C27.2861 30.4154 28.2684 30.0085 28.9926 29.2843C29.7168 28.56 30.1237 27.5778 30.1237 26.5535C30.1237 25.5293 29.7168 24.547 28.9926 23.8228C28.2684 23.0985 27.2861 22.6917 26.2619 22.6917ZM26.2619 20.1171C27.9689 20.1171 29.606 20.7952 30.8131 22.0023C32.0202 23.2094 32.6983 24.8465 32.6983 26.5535C32.6983 28.2606 32.0202 29.8977 30.8131 31.1048C29.606 32.3118 27.9689 32.99 26.2619 32.99C24.5548 32.99 22.9177 32.3118 21.7106 31.1048C20.5035 29.8977 19.8254 28.2606 19.8254 26.5535C19.8254 24.8465 20.5035 23.2094 21.7106 22.0023C22.9177 20.7952 24.5548 20.1171 26.2619 20.1171ZM34.6292 19.7953C34.6292 20.222 34.4597 20.6313 34.1579 20.9331C33.8562 21.2349 33.4469 21.4044 33.0201 21.4044C32.5933 21.4044 32.1841 21.2349 31.8823 20.9331C31.5805 20.6313 31.411 20.222 31.411 19.7953C31.411 19.3685 31.5805 18.9592 31.8823 18.6575C32.1841 18.3557 32.5933 18.1862 33.0201 18.1862C33.4469 18.1862 33.8562 18.3557 34.1579 18.6575C34.4597 18.9592 34.6292 19.3685 34.6292 19.7953ZM26.2619 16.2552C23.0771 16.2552 22.557 16.2642 21.0754 16.3299C20.0661 16.3775 19.389 16.5127 18.7608 16.7573C18.2351 16.9503 17.7599 17.2597 17.3706 17.6622C16.9676 18.0515 16.6579 18.5268 16.4643 19.0525C16.2197 19.6833 16.0846 20.3591 16.0382 21.3671C15.9713 22.7882 15.9623 23.2851 15.9623 26.5535C15.9623 29.7396 15.9713 30.2583 16.0369 31.74C16.0846 32.748 16.2197 33.4264 16.463 34.0533C16.6819 34.6132 16.9393 35.0162 17.3667 35.4435C17.8005 35.8761 18.2034 36.1348 18.757 36.3485C19.3929 36.5944 20.07 36.7308 21.0741 36.7772C22.4952 36.8441 22.9921 36.8518 26.2606 36.8518C29.4466 36.8518 29.9654 36.8428 31.447 36.7772C32.4537 36.7295 33.1308 36.5944 33.7603 36.3511C34.2855 36.1571 34.7606 35.8479 35.1506 35.4461C35.5844 35.0136 35.8431 34.6107 36.0568 34.0558C36.3014 33.4225 36.4379 32.7454 36.4842 31.7387C36.5511 30.3188 36.5589 29.8207 36.5589 26.5535C36.5589 23.3688 36.5498 22.8487 36.4842 21.3671C36.4366 20.3604 36.3001 19.6807 36.0568 19.0525C35.8628 18.5273 35.5535 18.0523 35.1519 17.6622C34.7628 17.2591 34.2875 16.9493 33.7616 16.756C33.1308 16.5114 32.4537 16.3762 31.447 16.3299C30.0272 16.263 29.5303 16.2552 26.2606 16.2552M26.2606 13.6807C29.7581 13.6807 30.1945 13.6935 31.568 13.7579C32.9377 13.8223 33.8723 14.0372 34.6923 14.3565C35.5419 14.6835 36.2576 15.1263 36.9734 15.8407C37.6279 16.4842 38.1344 17.2627 38.4576 18.1218C38.7756 18.9418 38.9918 19.8764 39.0562 21.2473C39.1167 22.6196 39.1334 23.056 39.1334 26.5535C39.1334 30.0511 39.1206 30.4875 39.0562 31.8597C38.9918 33.2307 38.7756 34.164 38.4576 34.9853C38.1353 35.8449 37.6287 36.6235 36.9734 37.2663C36.3297 37.9207 35.5513 38.4271 34.6923 38.7506C33.8723 39.0685 32.9377 39.2848 31.568 39.3492C30.1945 39.4097 29.7581 39.4264 26.2606 39.4264C22.763 39.4264 22.3266 39.4135 20.9531 39.3492C19.5834 39.2848 18.6501 39.0685 17.8288 38.7506C16.9693 38.4281 16.1908 37.9215 15.5478 37.2663C14.8931 36.6229 14.3866 35.8445 14.0635 34.9853C13.7443 34.1653 13.5293 33.2307 13.4649 31.8597C13.4031 30.4875 13.3877 30.0511 13.3877 26.5535C13.3877 23.056 13.4006 22.6196 13.4649 21.2473C13.5293 19.8764 13.7443 18.9431 14.0635 18.1218C14.3856 17.2621 14.8923 16.4835 15.5478 15.8407C16.191 15.1858 16.9695 14.6793 17.8288 14.3565C18.6488 14.0372 19.5821 13.8223 20.9531 13.7579C22.3279 13.6974 22.7643 13.6807 26.2619 13.6807" fill="white"/>
</svg>
