<svg width="57" height="57" viewBox="0 0 57 57" fill="none" xmlns="http://www.w3.org/2000/svg">
<rect y="0.621094" width="56.25" height="56.25" rx="11.25" fill="white"/>
<path d="M18.895 37.7461C18.3192 37.7461 17.8388 37.5481 17.4538 37.1521C17.0688 36.7561 16.8758 36.2615 16.875 35.6684V21.8238C16.875 21.2315 17.0679 20.7374 17.4538 20.3414C17.8396 19.9454 18.3196 19.747 18.8937 19.7461H37.3563C37.9312 19.7461 38.4113 19.9445 38.7963 20.3414C39.1813 20.7382 39.3742 21.2324 39.375 21.8238V35.6697C39.375 36.2611 39.1821 36.7552 38.7963 37.1521C38.4104 37.5489 37.9304 37.7469 37.3563 37.7461H18.895ZM38.125 22.1697L28.685 28.5262C28.5967 28.5734 28.5075 28.6132 28.4175 28.6458C28.3267 28.6775 28.2292 28.6934 28.125 28.6934C28.0208 28.6934 27.9233 28.6775 27.8325 28.6458C27.7417 28.6141 27.6525 28.5742 27.565 28.5262L18.125 22.1684V35.6684C18.125 35.8998 18.1971 36.0897 18.3412 36.2379C18.4854 36.3862 18.67 36.4604 18.895 36.4604H37.3563C37.5804 36.4604 37.7646 36.3862 37.9087 36.2379C38.0529 36.0897 38.125 35.8998 38.125 35.6684V22.1697ZM28.125 27.4604L37.74 21.0318H18.51L28.125 27.4604ZM18.125 22.441V21.3982V21.442V21.0318V21.4432V21.3764V22.441Z" fill="#192227"/>
</svg>
