<svg width="25" height="24" viewBox="0 0 25 24" fill="none" xmlns="http://www.w3.org/2000/svg">
<path d="M11.4475 1.66109C11.7001 0.883737 12.7999 0.883738 13.0525 1.66109L15.0976 7.95555C15.2859 8.53496 15.8258 8.92725 16.4351 8.92725H23.0535C23.8708 8.92725 24.2107 9.97317 23.5494 10.4536L18.195 14.3438C17.7021 14.7019 17.4959 15.3366 17.6842 15.916L19.7294 22.2105C19.9819 22.9878 19.0922 23.6343 18.431 23.1538L13.0766 19.2636C12.5837 18.9055 11.9163 18.9055 11.4234 19.2636L6.06904 23.1538C5.40778 23.6343 4.51807 22.9878 4.77064 22.2105L6.81584 15.916C7.0041 15.3366 6.79786 14.7019 6.30499 14.3438L0.950603 10.4536C0.289344 9.97317 0.629186 8.92725 1.44655 8.92725H8.06493C8.67415 8.92725 9.21409 8.53496 9.40235 7.95555L11.4475 1.66109Z" fill="#32BB37" stroke="#192227" stroke-width="0.5625"/>
</svg>
