<svg width="15" height="15" viewBox="0 0 15 15" fill="none" xmlns="http://www.w3.org/2000/svg">
<path d="M6.38505 1.37984C6.63762 0.602487 7.73738 0.602487 7.98995 1.37984L8.91258 4.21939C9.10084 4.79879 9.64078 5.19108 10.25 5.19108H13.2357C14.053 5.19108 14.3929 6.23701 13.7316 6.71744L11.3162 8.47237C10.8233 8.83046 10.617 9.4652 10.8053 10.0446L11.7279 12.8841C11.9805 13.6615 11.0908 14.3079 10.4295 13.8275L8.01407 12.0726C7.5212 11.7145 6.8538 11.7145 6.36093 12.0726L3.94547 13.8275C3.28421 14.3079 2.39449 13.6615 2.64707 12.8841L3.56969 10.0446C3.75795 9.4652 3.55172 8.83046 3.05884 8.47237L0.643385 6.71744C-0.0178738 6.23701 0.321968 5.19108 1.13933 5.19108H4.125C4.73422 5.19108 5.27416 4.79879 5.46242 4.21939L6.38505 1.37984Z" fill="white" stroke="#192227" stroke-width="0.5625"/>
</svg>
